# xmcd
#
# Track frame offsets:
#	183
#	21675
#	37165
#
# Disc length: 743 seconds
#
# Revision: 0
# Processed by: cddbd v1.5.1PL0 Copyright (c) Steve Scherf et al.
# Submitted via: dBpowerAMP V4.0
#
DISCID=2702e503
DTITLE=Zombies - Single CD New World
DYEAR=1900
DGENRE=
TTITLE0=New World
TTITLE1=Monday Morning Dance
TTITLE2=Alone In Paradise
EXTD=
EXTT0=
EXTT1=
EXTT2=
PLAYORDER=
